#!OML:ASF I:\golf\golf\golf 2\Subject 1\2002-09-07\Subject1.ASF
:FULLY-SPECIFIED
:DEGREES
356
root -5.15507 18.0211 -0.231111 -179.308 24.3105 -179.255
lowerback -7.20363 4.18652 9.7953
upperback -3.31462 7.80541 14.9517
thorax -0.626231 5.11735 11.1878
lowerneck -2.12696 -23.4409 -4.7437
upperneck 27.5188 -28.5114 -5.70809
head 8.86369 -13.18 -3.30568
rclavicle 1.01778e-013 -1.39944e-013
rhumerus 39.46 47.2614 -76.3269
rradius 35.7121
rwrist -3.66233
rhand -2.87745 3.2884
rfingers 7.12502
rthumb 22.8316 -25.3802
lclavicle 1.01778e-013 -1.39944e-013
lhumerus 11.0946 -21.252 90.6251
lradius 45.5
lwrist 57.6771
lhand -18.6503 37.0085
lfingers 7.12502
lthumb -172.357 -473.15
rfemur 7.5414 -3.75172 8.52683
rtibia 37.1559
rfoot 15.2722 -19.0528
rtoes 16.9845
lfemur -11.1309 -7.38398 -21.4697
ltibia 18.6944
lfoot 7.22877 -37.7285
ltoes 30.9979
357
root -5.14143 18.0265 -0.290175 -179.027 23.48 -179.005
lowerback -7.00883 4.21368 8.87397
upperback -3.79957 8.35401 15.5825
thorax -1.58549 5.56043 12.4162
lowerneck -1.85325 -23.8435 -5.45955
upperneck 27.2579 -28.9761 -5.75835
head 8.83187 -13.4512 -3.25451
rclavicle 8.26944e-014 1.27222e-014
rhumerus 42.2375 48.3867 -73.3445
rradius 37.3411
rwrist -2.64622
rhand -3.81221 4.41368
rfingers 7.12502
rthumb 21.9343 -24.3629
lclavicle 8.26944e-014 1.27222e-014
lhumerus 11.6168 -18.9602 91.0981
lradius 47.3711
lwrist 55.7154
lhand -19.5273 34.8871
lfingers 7.12502
lthumb -173.204 -475.242
rfemur 7.87362 -3.66478 8.8513
rtibia 36.7076
rfoot 16.0824 -18.9071
rtoes 17.6154
lfemur -11.3059 -7.77777 -21.2903
ltibia 18.889
lfoot 7.12103 -38.313
ltoes 30.7561
358
root -5.12923 18.0348 -0.346981 -178.703 22.6454 -178.836
lowerback -6.84659 4.16344 7.69978
upperback -4.28576 8.85842 16.2779
thorax -2.61079 6.03701 13.8975
lowerneck -1.61461 -24.2047 -6.18859
upperneck 26.9214 -29.3691 -5.9467
head 8.76104 -13.7107 -3.23381
rclavicle -2.54444e-014 1.90833e-014
rhumerus 45.1152 49.491 -70.2687
rradius 38.8035
rwrist -1.87175
rhand -4.72926 5.73267
rfingers 7.12502
rthumb 21.0535 -23.1445
lclavicle -2.54444e-014 1.90833e-014
lhumerus 12.0563 -16.8995 91.6618
lradius 49.542
lwrist 55.0389
lhand -21.5034 33.314
lfingers 7.12502
lthumb -175.112 -476.762
rfemur 8.09351 -3.56741 9.12513
rtibia 36.2546
rfoot 17.3162 -18.4234
rtoes 16.24
lfemur -11.5776 -8.32025 -21.1655
ltibia 19.0696
lfoot 7.51657 -38.5259
ltoes 31.4094
359
root -5.1184 18.0475 -0.404369 -178.247 21.7963 -178.54
lowerback -5.81814 2.76585 2.43277
upperback -5.11895 9.06665 19.8456
thorax -5.30598 7.23007 20.9815
lowerneck -1.40939 -24.3814 -8.79216
upperneck 26.8444 -28.717 -8.71523
head 8.66949 -13.8354 -3.71677
rclavicle 2.06736e-014 -3.49861e-014
rhumerus 47.4801 53.9709 -64.0557
rradius 40.7071
rwrist -1.85779
rhand -5.64276 6.8151
rfingers 7.12502
rthumb 20.1757 -22.1572
lclavicle 2.06736e-014 -3.49861e-014
lhumerus 10.3733 -11.1573 96.5051
lradius 51.7196
lwrist 53.4818
lhand -23.5157 31.3753
lfingers 7.12502
lthumb -177.055 -478.665
rfemur 8.20427 -3.43875 9.59157
rtibia 35.8113
rfoot 18.5501 -17.9623
rtoes 13.8784
lfemur -11.9336 -8.94027 -20.8683
ltibia 19.2212
lfoot 8.05162 -38.5973
ltoes 32.1789
360
root -5.10575 18.0584 -0.461171 -177.76 20.8702 -178.191
lowerback -7.00992 4.96809 9.52604
upperback -5.05319 9.85752 15.1236
thorax -3.04261 6.39268 11.4432
lowerneck -2.0233 -19.0464 -5.40509
upperneck 25.5767 -33.0562 -2.95146
head 8.83771 -17.808 -3.11064
rclavicle -3.49861e-014 6.04305e-014
rhumerus 50.7353 48.3458 -68.835
rradius 40.9913
rwrist 0.253856
rhand -6.84319 7.56105
rfingers 7.12502
rthumb 19.0216 -21.5288
lclavicle -3.49861e-014 6.04305e-014
lhumerus 15.3076 -15.0397 88.5621
lradius 53.4454
lwrist 53.9881
lhand -24.598 30.2177
lfingers 7.12502
lthumb -178.1 -479.811
rfemur 8.32485 -3.30232 10.1808
rtibia 35.3655
rfoot 19.4591 -17.8939
rtoes 13.3544
lfemur -12.3172 -9.47071 -20.4991
ltibia 19.3812
lfoot 8.52626 -38.8776
ltoes 32.7907
361
root -5.0906 18.0656 -0.518497 -177.282 19.8875 -177.968
lowerback -7.3032 5.75436 12.0085
upperback -5.39152 10.2904 13.238
thorax -2.50006 6.27262 7.9966
lowerneck -2.39489 -19.3856 -3.8168
upperneck 24.7623 -33.7988 -1.35591
head 8.67182 -17.8405 -2.86082
rclavicle 3.18055e-014 -6.67916e-014
rhumerus 53.5803 46.4985 -69.8624
rradius 42.0478
rwrist 1.25778
rhand -7.64121 8.30506
rfingers 7.12502
rthumb 18.254 -20.8584
lclavicle 3.18055e-014 -6.67916e-014
lhumerus 17.9702 -14.9866 85.1128
lradius 55.2293
lwrist 53.2225
lhand -25.0723 29.0297
lfingers 7.12502
lthumb -178.558 -480.995
rfemur 8.43854 -3.2571 10.6352
rtibia 34.9094
rfoot 20.0745 -18.2064
rtoes 14.9897
lfemur -12.7634 -9.95852 -20.2522
ltibia 19.5848
lfoot 9.18763 -39.2647
ltoes 33.4184
362
root -5.07553 18.0728 -0.57594 -176.775 18.9061 -177.675
lowerback -7.46608 6.086 13.0207
upperback -5.76929 10.6137 12.4735
thorax -2.52819 6.33346 6.64723
lowerneck -2.52705 -19.7049 -3.39557
upperneck 23.9762 -34.2332 -0.362246
head 8.5483 -17.8826 -2.63242
rclavicle 1.68569e-013 -5.08889e-014
rhumerus 56.1696 45.7916 -69.5393
rradius 43.2869
rwrist 1.92246
rhand -8.25911 9.73097
rfingers 7.12502
rthumb 17.6595 -19.4871
lclavicle 1.68569e-013 -5.08889e-014
lhumerus 19.8216 -13.7003 83.6054
lradius 56.955
lwrist 51.925
lhand -25.3838 27.6971
lfingers 7.12502
lthumb -178.859 -482.326
rfemur 8.53159 -3.17373 11.22
rtibia 34.4598
rfoot 20.8568 -18.349
rtoes 15.2706
lfemur -13.2329 -10.4527 -19.9019
ltibia 19.8014
lfoot 10.6817 -39.296
ltoes 35.2223
363
root -5.06169 18.078 -0.632645 -176.296 17.9307 -177.384
lowerback -7.6202 6.20795 13.2886
upperback -6.14205 10.8722 12.2696
thorax -2.79044 6.46225 6.29448
lowerneck -2.81588 -20.058 -3.31301
upperneck 23.4784 -34.4789 -0.0685024
head 8.46689 -17.9111 -2.57885
rclavicle -9.22361e-014 -8.5875e-014
rhumerus 58.7494 45.5749 -68.3951
rradius 44.6109
rwrist 2.27417
rhand -9.05689 10.7902
rfingers 7.12502
rthumb 16.8917 -18.4952
lclavicle -9.22361e-014 -8.5875e-014
lhumerus 21.3411 -11.9231 83.0222
lradius 58.7481
lwrist 50.5712
lhand -25.6385 26.8877
lfingers 7.12502
lthumb -179.105 -483.134
rfemur 8.64047 -3.04118 11.841
rtibia 34.0182
rfoot 21.7097 -18.2935
rtoes 14.6633
lfemur -13.6762 -10.8386 -19.5481
ltibia 19.9936
lfoot 12.2654 -39.2773
ltoes 37.182
364
root -5.04579 18.0848 -0.684561 -175.853 16.9169 -177.129
lowerback -7.75709 6.33831 13.5342
upperback -6.5262 11.1346 12.0071
thorax -3.06128 6.58461 5.88835
lowerneck -3.08416 -20.4147 -3.09484
upperneck 22.9144 -34.7014 0.187895
head 8.33049 -17.9312 -2.52889
rclavicle 1.74931e-014 -1.62208e-013
rhumerus 61.373 45.1949 -67.133
rradius 45.96
rwrist 2.30291
rhand -9.83428 11.618
rfingers 7.12502
rthumb 16.1432 -17.7297
lclavicle 1.74931e-014 -1.62208e-013
lhumerus 22.9215 -10.3948 82.3718
lradius 60.5434
lwrist 49.0454
lhand -25.9979 26.4071
lfingers 7.12502
lthumb -179.452 -483.614
rfemur 8.77353 -2.90428 12.4783
rtibia 33.5567
rfoot 22.2927 -18.4119
rtoes 14.6364
lfemur -14.1247 -11.0333 -19.2217
ltibia 20.187
lfoot 13.3537 -39.7141
ltoes 38.0611
365
root -5.0292 18.0953 -0.733726 -175.45 15.8818 -176.95
lowerback -7.77021 6.4912 13.7158
upperback -7.00946 11.4725 11.6622
thorax -3.49888 6.73285 5.40147
lowerneck -3.00628 -20.7523 -2.85604
upperneck 22.0842 -34.9347 0.644358
head 8.08525 -17.9712 -2.36202
rclavicle -1.86062e-013 -5.725e-014
rhumerus 63.6283 44.6733 -66.2221
rradius 47.2533
rwrist 2.41263
rhand -10.5693 12.5659
rfingers 7.12502
rthumb 15.4353 -16.8378
lclavicle -1.86062e-013 -5.725e-014
lhumerus 24.3671 -9.19999 81.7185
lradius 62.2622
lwrist 47.3607
lhand -26.3014 25.2162
lfingers 7.12502
lthumb -179.745 -484.804
rfemur 8.91472 -2.76026 13.0879
rtibia 33.0632
rfoot 22.6599 -18.5172
rtoes 14.1792
lfemur -14.5926 -11.2845 -18.9573
ltibia 20.3918
lfoot 14.3374 -40.1628
ltoes 38.8042
366
root -5.01604 18.101 -0.787735 -175.074 14.8411 -176.904
lowerback -7.87449 6.61422 13.7614
upperback -7.49711 11.7478 11.2888
thorax -3.8993 6.85217 4.96575
lowerneck -2.89499 -21.0664 -2.60992
upperneck 21.1435 -35.0946 1.11436
head 7.79887 -17.9836 -2.17151
rclavicle -8.26944e-014 2.8625e-014
rhumerus 65.823 44.2069 -65.4058
rradius 48.4958
rwrist 2.70384
rhand -11.2593 13.5413
rfingers 7.12502
rthumb 14.7707 -15.9124
lclavicle -8.26944e-014 2.8625e-014
lhumerus 25.7717 -7.94329 81.1422
lradius 63.9471
lwrist 45.6048
lhand -26.2533 24.1424
lfingers 7.12502
lthumb -179.699 -485.878
rfemur 9.09452 -2.78853 13.4688
rtibia 32.5182
rfoot 22.9323 -18.6173
rtoes 15.0402
lfemur -15.0452 -11.724 -18.8475
ltibia 20.5852
lfoot 15.1817 -40.4494
ltoes 39.6531
367
root -5.00272 18.1035 -0.843243 -174.696 13.8219 -176.757
lowerback -8.07213 6.71311 13.8664
upperback -7.88491 11.9501 10.9709
thorax -4.13966 6.94228 4.58345
lowerneck -2.87061 -21.375 -2.51524
upperneck 20.136 -35.2939 1.79865
head 7.57216 -17.9983 -1.94025
rclavicle 1.74931e-014 5.08889e-014
rhumerus 68.2601 43.7303 -64.3672
rradius 49.7512
rwrist 3.03453
rhand -11.9717 14.2896
rfingers 7.12502
rthumb 14.0842 -15.2131
lclavicle 1.74931e-014 5.08889e-014
lhumerus 27.3831 -6.45565 80.6883
lradius 65.5844
lwrist 44.0839
lhand -25.7462 23.6387
lfingers 7.12502
lthumb -179.209 -486.383
rfemur 9.34822 -2.86707 13.9284
rtibia 31.9109
rfoot 23.264 -18.9615
rtoes 17.9803
lfemur -15.4399 -12.0577 -18.6391
ltibia 20.7527
lfoot 16.1731 -40.7694
ltoes 40.6736
